<?xml version="1.0" encoding="UTF-8"?>
<svg xmlns="http://www.w3.org/2000/svg"
     viewBox="0 0 920 690">
<rect x="0" y="0" width="920" height="690" fill="white"></rect>
<g transform="scale(34.328358208955225 34.328358208955225) rotate(90) translate(0.05 -26.15)"
   style="stroke:black; stroke-linecap:round; stroke-width:0.1; fill:none">
<line x1="1" y1="1" x2="2" y2="1"></line>
<line x1="5" y1="0" x2="5" y2="1"></line>
<line x1="4" y1="1" x2="5" y2="1"></line>
<line x1="6" y1="1" x2="7" y2="1"></line>
<line x1="8" y1="0" x2="8" y2="1"></line>
<line x1="7" y1="1" x2="8" y2="1"></line>
<line x1="9" y1="1" x2="10" y2="1"></line>
<line x1="11" y1="0" x2="11" y2="1"></line>
<line x1="10" y1="1" x2="11" y2="1"></line>
<line x1="12" y1="0" x2="12" y2="1"></line>
<line x1="13" y1="0" x2="13" y2="1"></line>
<line x1="14" y1="0" x2="14" y2="1"></line>
<line x1="15" y1="0" x2="15" y2="1"></line>
<line x1="16" y1="1" x2="17" y2="1"></line>
<line x1="17" y1="1" x2="18" y2="1"></line>
<line x1="19" y1="1" x2="20" y2="1"></line>
<line x1="2" y1="1" x2="2" y2="2"></line>
<line x1="1" y1="2" x2="2" y2="2"></line>
<line x1="3" y1="1" x2="3" y2="2"></line>
<line x1="2" y1="2" x2="3" y2="2"></line>
<line x1="4" y1="2" x2="5" y2="2"></line>
<line x1="5" y1="2" x2="6" y2="2"></line>
<line x1="9" y1="1" x2="9" y2="2"></line>
<line x1="8" y1="2" x2="9" y2="2"></line>
<line x1="10" y1="2" x2="11" y2="2"></line>
<line x1="12" y1="1" x2="12" y2="2"></line>
<line x1="11" y1="2" x2="12" y2="2"></line>
<line x1="14" y1="2" x2="15" y2="2"></line>
<line x1="16" y1="1" x2="16" y2="2"></line>
<line x1="15" y1="2" x2="16" y2="2"></line>
<line x1="17" y1="1" x2="17" y2="2"></line>
<line x1="18" y1="1" x2="18" y2="2"></line>
<line x1="19" y1="1" x2="19" y2="2"></line>
<line x1="18" y1="2" x2="19" y2="2"></line>
<line x1="1" y1="2" x2="1" y2="3"></line>
<line x1="4" y1="2" x2="4" y2="3"></line>
<line x1="5" y1="2" x2="5" y2="3"></line>
<line x1="5" y1="3" x2="6" y2="3"></line>
<line x1="7" y1="2" x2="7" y2="3"></line>
<line x1="6" y1="3" x2="7" y2="3"></line>
<line x1="7" y1="3" x2="8" y2="3"></line>
<line x1="10" y1="2" x2="10" y2="3"></line>
<line x1="11" y1="2" x2="11" y2="3"></line>
<line x1="13" y1="2" x2="13" y2="3"></line>
<line x1="12" y1="3" x2="13" y2="3"></line>
<line x1="14" y1="2" x2="14" y2="3"></line>
<line x1="13" y1="3" x2="14" y2="3"></line>
<line x1="15" y1="2" x2="15" y2="3"></line>
<line x1="16" y1="2" x2="16" y2="3"></line>
<line x1="17" y1="3" x2="18" y2="3"></line>
<line x1="18" y1="3" x2="19" y2="3"></line>
<line x1="19" y1="3" x2="20" y2="3"></line>
<line x1="1" y1="3" x2="1" y2="4"></line>
<line x1="0" y1="4" x2="1" y2="4"></line>
<line x1="2" y1="3" x2="2" y2="4"></line>
<line x1="3" y1="3" x2="3" y2="4"></line>
<line x1="5" y1="4" x2="6" y2="4"></line>
<line x1="6" y1="4" x2="7" y2="4"></line>
<line x1="8" y1="3" x2="8" y2="4"></line>
<line x1="7" y1="4" x2="8" y2="4"></line>
<line x1="9" y1="3" x2="9" y2="4"></line>
<line x1="8" y1="4" x2="9" y2="4"></line>
<line x1="10" y1="4" x2="11" y2="4"></line>
<line x1="13" y1="3" x2="13" y2="4"></line>
<line x1="15" y1="4" x2="16" y2="4"></line>
<line x1="17" y1="4" x2="18" y2="4"></line>
<line x1="19" y1="4" x2="20" y2="4"></line>
<line x1="2" y1="4" x2="2" y2="5"></line>
<line x1="3" y1="4" x2="3" y2="5"></line>
<line x1="4" y1="4" x2="4" y2="5"></line>
<line x1="3" y1="5" x2="4" y2="5"></line>
<line x1="5" y1="5" x2="6" y2="5"></line>
<line x1="7" y1="4" x2="7" y2="5"></line>
<line x1="9" y1="4" x2="9" y2="5"></line>
<line x1="8" y1="5" x2="9" y2="5"></line>
<line x1="10" y1="4" x2="10" y2="5"></line>
<line x1="9" y1="5" x2="10" y2="5"></line>
<line x1="11" y1="4" x2="11" y2="5"></line>
<line x1="12" y1="4" x2="12" y2="5"></line>
<line x1="11" y1="5" x2="12" y2="5"></line>
<line x1="12" y1="5" x2="13" y2="5"></line>
<line x1="14" y1="4" x2="14" y2="5"></line>
<line x1="16" y1="4" x2="16" y2="5"></line>
<line x1="15" y1="5" x2="16" y2="5"></line>
<line x1="17" y1="4" x2="17" y2="5"></line>
<line x1="16" y1="5" x2="17" y2="5"></line>
<line x1="17" y1="5" x2="18" y2="5"></line>
<line x1="18" y1="5" x2="19" y2="5"></line>
<line x1="1" y1="5" x2="1" y2="6"></line>
<line x1="2" y1="5" x2="2" y2="6"></line>
<line x1="1" y1="6" x2="2" y2="6"></line>
<line x1="3" y1="5" x2="3" y2="6"></line>
<line x1="2" y1="6" x2="3" y2="6"></line>
<line x1="3" y1="6" x2="4" y2="6"></line>
<line x1="6" y1="5" x2="6" y2="6"></line>
<line x1="5" y1="6" x2="6" y2="6"></line>
<line x1="6" y1="6" x2="7" y2="6"></line>
<line x1="8" y1="5" x2="8" y2="6"></line>
<line x1="9" y1="5" x2="9" y2="6"></line>
<line x1="10" y1="6" x2="11" y2="6"></line>
<line x1="13" y1="5" x2="13" y2="6"></line>
<line x1="12" y1="6" x2="13" y2="6"></line>
<line x1="14" y1="5" x2="14" y2="6"></line>
<line x1="13" y1="6" x2="14" y2="6"></line>
<line x1="19" y1="5" x2="19" y2="6"></line>
<line x1="19" y1="6" x2="20" y2="6"></line>
<line x1="1" y1="6" x2="1" y2="7"></line>
<line x1="3" y1="7" x2="4" y2="7"></line>
<line x1="6" y1="6" x2="6" y2="7"></line>
<line x1="5" y1="7" x2="6" y2="7"></line>
<line x1="6" y1="7" x2="7" y2="7"></line>
<line x1="7" y1="7" x2="8" y2="7"></line>
<line x1="8" y1="7" x2="9" y2="7"></line>
<line x1="11" y1="6" x2="11" y2="7"></line>
<line x1="10" y1="7" x2="11" y2="7"></line>
<line x1="11" y1="7" x2="12" y2="7"></line>
<line x1="14" y1="6" x2="14" y2="7"></line>
<line x1="13" y1="7" x2="14" y2="7"></line>
<line x1="15" y1="6" x2="15" y2="7"></line>
<line x1="14" y1="7" x2="15" y2="7"></line>
<line x1="16" y1="6" x2="16" y2="7"></line>
<line x1="15" y1="7" x2="16" y2="7"></line>
<line x1="17" y1="6" x2="17" y2="7"></line>
<line x1="16" y1="7" x2="17" y2="7"></line>
<line x1="18" y1="6" x2="18" y2="7"></line>
<line x1="18" y1="7" x2="19" y2="7"></line>
<line x1="1" y1="7" x2="1" y2="8"></line>
<line x1="2" y1="7" x2="2" y2="8"></line>
<line x1="1" y1="8" x2="2" y2="8"></line>
<line x1="3" y1="7" x2="3" y2="8"></line>
<line x1="4" y1="7" x2="4" y2="8"></line>
<line x1="5" y1="8" x2="6" y2="8"></line>
<line x1="9" y1="7" x2="9" y2="8"></line>
<line x1="8" y1="8" x2="9" y2="8"></line>
<line x1="10" y1="8" x2="11" y2="8"></line>
<line x1="12" y1="7" x2="12" y2="8"></line>
<line x1="11" y1="8" x2="12" y2="8"></line>
<line x1="14" y1="8" x2="15" y2="8"></line>
<line x1="15" y1="8" x2="16" y2="8"></line>
<line x1="17" y1="7" x2="17" y2="8"></line>
<line x1="19" y1="7" x2="19" y2="8"></line>
<line x1="19" y1="8" x2="20" y2="8"></line>
<line x1="1" y1="8" x2="1" y2="9"></line>
<line x1="1" y1="9" x2="2" y2="9"></line>
<line x1="2" y1="9" x2="3" y2="9"></line>
<line x1="4" y1="8" x2="4" y2="9"></line>
<line x1="3" y1="9" x2="4" y2="9"></line>
<line x1="5" y1="8" x2="5" y2="9"></line>
<line x1="5" y1="9" x2="6" y2="9"></line>
<line x1="7" y1="8" x2="7" y2="9"></line>
<line x1="8" y1="8" x2="8" y2="9"></line>
<line x1="7" y1="9" x2="8" y2="9"></line>
<line x1="8" y1="9" x2="9" y2="9"></line>
<line x1="9" y1="9" x2="10" y2="9"></line>
<line x1="11" y1="8" x2="11" y2="9"></line>
<line x1="10" y1="9" x2="11" y2="9"></line>
<line x1="13" y1="8" x2="13" y2="9"></line>
<line x1="12" y1="9" x2="13" y2="9"></line>
<line x1="16" y1="8" x2="16" y2="9"></line>
<line x1="15" y1="9" x2="16" y2="9"></line>
<line x1="17" y1="8" x2="17" y2="9"></line>
<line x1="16" y1="9" x2="17" y2="9"></line>
<line x1="18" y1="8" x2="18" y2="9"></line>
<line x1="17" y1="9" x2="18" y2="9"></line>
<line x1="1" y1="9" x2="1" y2="10"></line>
<line x1="0" y1="10" x2="1" y2="10"></line>
<line x1="5" y1="9" x2="5" y2="10"></line>
<line x1="5" y1="10" x2="6" y2="10"></line>
<line x1="6" y1="10" x2="7" y2="10"></line>
<line x1="9" y1="9" x2="9" y2="10"></line>
<line x1="11" y1="9" x2="11" y2="10"></line>
<line x1="10" y1="10" x2="11" y2="10"></line>
<line x1="12" y1="9" x2="12" y2="10"></line>
<line x1="13" y1="9" x2="13" y2="10"></line>
<line x1="14" y1="9" x2="14" y2="10"></line>
<line x1="14" y1="10" x2="15" y2="10"></line>
<line x1="17" y1="9" x2="17" y2="10"></line>
<line x1="16" y1="10" x2="17" y2="10"></line>
<line x1="17" y1="10" x2="18" y2="10"></line>
<line x1="19" y1="9" x2="19" y2="10"></line>
<line x1="2" y1="10" x2="2" y2="11"></line>
<line x1="3" y1="10" x2="3" y2="11"></line>
<line x1="2" y1="11" x2="3" y2="11"></line>
<line x1="4" y1="10" x2="4" y2="11"></line>
<line x1="3" y1="11" x2="4" y2="11"></line>
<line x1="5" y1="11" x2="6" y2="11"></line>
<line x1="7" y1="10" x2="7" y2="11"></line>
<line x1="8" y1="10" x2="8" y2="11"></line>
<line x1="7" y1="11" x2="8" y2="11"></line>
<line x1="10" y1="10" x2="10" y2="11"></line>
<line x1="9" y1="11" x2="10" y2="11"></line>
<line x1="11" y1="10" x2="11" y2="11"></line>
<line x1="12" y1="10" x2="12" y2="11"></line>
<line x1="11" y1="11" x2="12" y2="11"></line>
<line x1="13" y1="10" x2="13" y2="11"></line>
<line x1="14" y1="10" x2="14" y2="11"></line>
<line x1="13" y1="11" x2="14" y2="11"></line>
<line x1="15" y1="10" x2="15" y2="11"></line>
<line x1="16" y1="10" x2="16" y2="11"></line>
<line x1="16" y1="11" x2="17" y2="11"></line>
<line x1="17" y1="11" x2="18" y2="11"></line>
<line x1="19" y1="10" x2="19" y2="11"></line>
<line x1="18" y1="11" x2="19" y2="11"></line>
<line x1="19" y1="11" x2="20" y2="11"></line>
<line x1="1" y1="11" x2="1" y2="12"></line>
<line x1="2" y1="12" x2="3" y2="12"></line>
<line x1="4" y1="11" x2="4" y2="12"></line>
<line x1="5" y1="11" x2="5" y2="12"></line>
<line x1="8" y1="11" x2="8" y2="12"></line>
<line x1="7" y1="12" x2="8" y2="12"></line>
<line x1="9" y1="12" x2="10" y2="12"></line>
<line x1="10" y1="12" x2="11" y2="12"></line>
<line x1="11" y1="12" x2="12" y2="12"></line>
<line x1="12" y1="12" x2="13" y2="12"></line>
<line x1="14" y1="11" x2="14" y2="12"></line>
<line x1="14" y1="12" x2="15" y2="12"></line>
<line x1="16" y1="11" x2="16" y2="12"></line>
<line x1="15" y1="12" x2="16" y2="12"></line>
<line x1="16" y1="12" x2="17" y2="12"></line>
<line x1="18" y1="11" x2="18" y2="12"></line>
<line x1="19" y1="12" x2="20" y2="12"></line>
<line x1="1" y1="12" x2="1" y2="13"></line>
<line x1="2" y1="12" x2="2" y2="13"></line>
<line x1="1" y1="13" x2="2" y2="13"></line>
<line x1="2" y1="13" x2="3" y2="13"></line>
<line x1="4" y1="12" x2="4" y2="13"></line>
<line x1="5" y1="12" x2="5" y2="13"></line>
<line x1="6" y1="12" x2="6" y2="13"></line>
<line x1="7" y1="12" x2="7" y2="13"></line>
<line x1="6" y1="13" x2="7" y2="13"></line>
<line x1="10" y1="12" x2="10" y2="13"></line>
<line x1="13" y1="12" x2="13" y2="13"></line>
<line x1="12" y1="13" x2="13" y2="13"></line>
<line x1="14" y1="12" x2="14" y2="13"></line>
<line x1="13" y1="13" x2="14" y2="13"></line>
<line x1="16" y1="12" x2="16" y2="13"></line>
<line x1="15" y1="13" x2="16" y2="13"></line>
<line x1="17" y1="12" x2="17" y2="13"></line>
<line x1="18" y1="12" x2="18" y2="13"></line>
<line x1="19" y1="12" x2="19" y2="13"></line>
<line x1="0" y1="14" x2="1" y2="14"></line>
<line x1="3" y1="13" x2="3" y2="14"></line>
<line x1="2" y1="14" x2="3" y2="14"></line>
<line x1="4" y1="13" x2="4" y2="14"></line>
<line x1="3" y1="14" x2="4" y2="14"></line>
<line x1="5" y1="13" x2="5" y2="14"></line>
<line x1="4" y1="14" x2="5" y2="14"></line>
<line x1="5" y1="14" x2="6" y2="14"></line>
<line x1="7" y1="13" x2="7" y2="14"></line>
<line x1="6" y1="14" x2="7" y2="14"></line>
<line x1="8" y1="13" x2="8" y2="14"></line>
<line x1="9" y1="13" x2="9" y2="14"></line>
<line x1="8" y1="14" x2="9" y2="14"></line>
<line x1="11" y1="13" x2="11" y2="14"></line>
<line x1="10" y1="14" x2="11" y2="14"></line>
<line x1="12" y1="13" x2="12" y2="14"></line>
<line x1="13" y1="14" x2="14" y2="14"></line>
<line x1="15" y1="13" x2="15" y2="14"></line>
<line x1="14" y1="14" x2="15" y2="14"></line>
<line x1="16" y1="14" x2="17" y2="14"></line>
<line x1="17" y1="14" x2="18" y2="14"></line>
<line x1="19" y1="13" x2="19" y2="14"></line>
<line x1="0" y1="15" x2="1" y2="15"></line>
<line x1="3" y1="15" x2="4" y2="15"></line>
<line x1="5" y1="14" x2="5" y2="15"></line>
<line x1="8" y1="14" x2="8" y2="15"></line>
<line x1="7" y1="15" x2="8" y2="15"></line>
<line x1="8" y1="15" x2="9" y2="15"></line>
<line x1="9" y1="15" x2="10" y2="15"></line>
<line x1="11" y1="14" x2="11" y2="15"></line>
<line x1="11" y1="15" x2="12" y2="15"></line>
<line x1="12" y1="15" x2="13" y2="15"></line>
<line x1="15" y1="14" x2="15" y2="15"></line>
<line x1="16" y1="14" x2="16" y2="15"></line>
<line x1="17" y1="14" x2="17" y2="15"></line>
<line x1="17" y1="15" x2="18" y2="15"></line>
<line x1="19" y1="15" x2="20" y2="15"></line>
<line x1="2" y1="15" x2="2" y2="16"></line>
<line x1="1" y1="16" x2="2" y2="16"></line>
<line x1="3" y1="15" x2="3" y2="16"></line>
<line x1="5" y1="15" x2="5" y2="16"></line>
<line x1="6" y1="15" x2="6" y2="16"></line>
<line x1="5" y1="16" x2="6" y2="16"></line>
<line x1="6" y1="16" x2="7" y2="16"></line>
<line x1="8" y1="15" x2="8" y2="16"></line>
<line x1="7" y1="16" x2="8" y2="16"></line>
<line x1="8" y1="16" x2="9" y2="16"></line>
<line x1="11" y1="16" x2="12" y2="16"></line>
<line x1="13" y1="15" x2="13" y2="16"></line>
<line x1="14" y1="15" x2="14" y2="16"></line>
<line x1="13" y1="16" x2="14" y2="16"></line>
<line x1="14" y1="16" x2="15" y2="16"></line>
<line x1="17" y1="15" x2="17" y2="16"></line>
<line x1="17" y1="16" x2="18" y2="16"></line>
<line x1="18" y1="16" x2="19" y2="16"></line>
<line x1="19" y1="16" x2="20" y2="16"></line>
<line x1="2" y1="16" x2="2" y2="17"></line>
<line x1="1" y1="17" x2="2" y2="17"></line>
<line x1="3" y1="16" x2="3" y2="17"></line>
<line x1="2" y1="17" x2="3" y2="17"></line>
<line x1="4" y1="16" x2="4" y2="17"></line>
<line x1="4" y1="17" x2="5" y2="17"></line>
<line x1="6" y1="16" x2="6" y2="17"></line>
<line x1="6" y1="17" x2="7" y2="17"></line>
<line x1="7" y1="17" x2="8" y2="17"></line>
<line x1="10" y1="16" x2="10" y2="17"></line>
<line x1="9" y1="17" x2="10" y2="17"></line>
<line x1="12" y1="16" x2="12" y2="17"></line>
<line x1="11" y1="17" x2="12" y2="17"></line>
<line x1="12" y1="17" x2="13" y2="17"></line>
<line x1="15" y1="16" x2="15" y2="17"></line>
<line x1="16" y1="16" x2="16" y2="17"></line>
<line x1="15" y1="17" x2="16" y2="17"></line>
<line x1="18" y1="16" x2="18" y2="17"></line>
<line x1="1" y1="17" x2="1" y2="18"></line>
<line x1="2" y1="17" x2="2" y2="18"></line>
<line x1="2" y1="18" x2="3" y2="18"></line>
<line x1="4" y1="17" x2="4" y2="18"></line>
<line x1="4" y1="18" x2="5" y2="18"></line>
<line x1="5" y1="18" x2="6" y2="18"></line>
<line x1="7" y1="17" x2="7" y2="18"></line>
<line x1="6" y1="18" x2="7" y2="18"></line>
<line x1="7" y1="18" x2="8" y2="18"></line>
<line x1="10" y1="17" x2="10" y2="18"></line>
<line x1="12" y1="17" x2="12" y2="18"></line>
<line x1="12" y1="18" x2="13" y2="18"></line>
<line x1="14" y1="17" x2="14" y2="18"></line>
<line x1="13" y1="18" x2="14" y2="18"></line>
<line x1="14" y1="18" x2="15" y2="18"></line>
<line x1="16" y1="17" x2="16" y2="18"></line>
<line x1="15" y1="18" x2="16" y2="18"></line>
<line x1="17" y1="17" x2="17" y2="18"></line>
<line x1="16" y1="18" x2="17" y2="18"></line>
<line x1="17" y1="18" x2="18" y2="18"></line>
<line x1="19" y1="17" x2="19" y2="18"></line>
<line x1="19" y1="18" x2="20" y2="18"></line>
<line x1="1" y1="18" x2="1" y2="19"></line>
<line x1="0" y1="19" x2="1" y2="19"></line>
<line x1="1" y1="19" x2="2" y2="19"></line>
<line x1="5" y1="18" x2="5" y2="19"></line>
<line x1="4" y1="19" x2="5" y2="19"></line>
<line x1="5" y1="19" x2="6" y2="19"></line>
<line x1="7" y1="19" x2="8" y2="19"></line>
<line x1="9" y1="18" x2="9" y2="19"></line>
<line x1="10" y1="18" x2="10" y2="19"></line>
<line x1="9" y1="19" x2="10" y2="19"></line>
<line x1="11" y1="18" x2="11" y2="19"></line>
<line x1="10" y1="19" x2="11" y2="19"></line>
<line x1="12" y1="19" x2="13" y2="19"></line>
<line x1="16" y1="18" x2="16" y2="19"></line>
<line x1="18" y1="18" x2="18" y2="19"></line>
<line x1="17" y1="19" x2="18" y2="19"></line>
<line x1="19" y1="19" x2="20" y2="19"></line>
<line x1="2" y1="19" x2="2" y2="20"></line>
<line x1="3" y1="19" x2="3" y2="20"></line>
<line x1="2" y1="20" x2="3" y2="20"></line>
<line x1="4" y1="19" x2="4" y2="20"></line>
<line x1="4" y1="20" x2="5" y2="20"></line>
<line x1="5" y1="20" x2="6" y2="20"></line>
<line x1="7" y1="19" x2="7" y2="20"></line>
<line x1="6" y1="20" x2="7" y2="20"></line>
<line x1="9" y1="20" x2="10" y2="20"></line>
<line x1="11" y1="19" x2="11" y2="20"></line>
<line x1="11" y1="20" x2="12" y2="20"></line>
<line x1="13" y1="19" x2="13" y2="20"></line>
<line x1="14" y1="19" x2="14" y2="20"></line>
<line x1="13" y1="20" x2="14" y2="20"></line>
<line x1="15" y1="19" x2="15" y2="20"></line>
<line x1="14" y1="20" x2="15" y2="20"></line>
<line x1="18" y1="19" x2="18" y2="20"></line>
<line x1="19" y1="19" x2="19" y2="20"></line>
<line x1="18" y1="20" x2="19" y2="20"></line>
<line x1="1" y1="20" x2="1" y2="21"></line>
<line x1="4" y1="20" x2="4" y2="21"></line>
<line x1="5" y1="21" x2="6" y2="21"></line>
<line x1="6" y1="21" x2="7" y2="21"></line>
<line x1="8" y1="20" x2="8" y2="21"></line>
<line x1="7" y1="21" x2="8" y2="21"></line>
<line x1="10" y1="20" x2="10" y2="21"></line>
<line x1="9" y1="21" x2="10" y2="21"></line>
<line x1="11" y1="20" x2="11" y2="21"></line>
<line x1="10" y1="21" x2="11" y2="21"></line>
<line x1="12" y1="20" x2="12" y2="21"></line>
<line x1="13" y1="20" x2="13" y2="21"></line>
<line x1="12" y1="21" x2="13" y2="21"></line>
<line x1="14" y1="20" x2="14" y2="21"></line>
<line x1="15" y1="20" x2="15" y2="21"></line>
<line x1="16" y1="20" x2="16" y2="21"></line>
<line x1="15" y1="21" x2="16" y2="21"></line>
<line x1="17" y1="20" x2="17" y2="21"></line>
<line x1="18" y1="20" x2="18" y2="21"></line>
<line x1="18" y1="21" x2="19" y2="21"></line>
<line x1="1" y1="21" x2="1" y2="22"></line>
<line x1="2" y1="21" x2="2" y2="22"></line>
<line x1="1" y1="22" x2="2" y2="22"></line>
<line x1="3" y1="21" x2="3" y2="22"></line>
<line x1="4" y1="21" x2="4" y2="22"></line>
<line x1="3" y1="22" x2="4" y2="22"></line>
<line x1="5" y1="21" x2="5" y2="22"></line>
<line x1="6" y1="21" x2="6" y2="22"></line>
<line x1="7" y1="21" x2="7" y2="22"></line>
<line x1="8" y1="22" x2="9" y2="22"></line>
<line x1="10" y1="21" x2="10" y2="22"></line>
<line x1="9" y1="22" x2="10" y2="22"></line>
<line x1="13" y1="22" x2="14" y2="22"></line>
<line x1="16" y1="21" x2="16" y2="22"></line>
<line x1="15" y1="22" x2="16" y2="22"></line>
<line x1="17" y1="21" x2="17" y2="22"></line>
<line x1="16" y1="22" x2="17" y2="22"></line>
<line x1="2" y1="22" x2="2" y2="23"></line>
<line x1="1" y1="23" x2="2" y2="23"></line>
<line x1="3" y1="22" x2="3" y2="23"></line>
<line x1="2" y1="23" x2="3" y2="23"></line>
<line x1="3" y1="23" x2="4" y2="23"></line>
<line x1="5" y1="22" x2="5" y2="23"></line>
<line x1="4" y1="23" x2="5" y2="23"></line>
<line x1="5" y1="23" x2="6" y2="23"></line>
<line x1="7" y1="23" x2="8" y2="23"></line>
<line x1="8" y1="23" x2="9" y2="23"></line>
<line x1="11" y1="22" x2="11" y2="23"></line>
<line x1="12" y1="22" x2="12" y2="23"></line>
<line x1="11" y1="23" x2="12" y2="23"></line>
<line x1="14" y1="22" x2="14" y2="23"></line>
<line x1="16" y1="22" x2="16" y2="23"></line>
<line x1="16" y1="23" x2="17" y2="23"></line>
<line x1="18" y1="22" x2="18" y2="23"></line>
<line x1="17" y1="23" x2="18" y2="23"></line>
<line x1="19" y1="22" x2="19" y2="23"></line>
<line x1="1" y1="23" x2="1" y2="24"></line>
<line x1="2" y1="23" x2="2" y2="24"></line>
<line x1="4" y1="23" x2="4" y2="24"></line>
<line x1="3" y1="24" x2="4" y2="24"></line>
<line x1="4" y1="24" x2="5" y2="24"></line>
<line x1="6" y1="23" x2="6" y2="24"></line>
<line x1="7" y1="23" x2="7" y2="24"></line>
<line x1="7" y1="24" x2="8" y2="24"></line>
<line x1="8" y1="24" x2="9" y2="24"></line>
<line x1="10" y1="23" x2="10" y2="24"></line>
<line x1="12" y1="23" x2="12" y2="24"></line>
<line x1="13" y1="23" x2="13" y2="24"></line>
<line x1="12" y1="24" x2="13" y2="24"></line>
<line x1="14" y1="23" x2="14" y2="24"></line>
<line x1="15" y1="23" x2="15" y2="24"></line>
<line x1="16" y1="24" x2="17" y2="24"></line>
<line x1="18" y1="23" x2="18" y2="24"></line>
<line x1="19" y1="23" x2="19" y2="24"></line>
<line x1="0" y1="25" x2="1" y2="25"></line>
<line x1="2" y1="24" x2="2" y2="25"></line>
<line x1="2" y1="25" x2="3" y2="25"></line>
<line x1="5" y1="25" x2="6" y2="25"></line>
<line x1="6" y1="25" x2="7" y2="25"></line>
<line x1="9" y1="24" x2="9" y2="25"></line>
<line x1="8" y1="25" x2="9" y2="25"></line>
<line x1="10" y1="24" x2="10" y2="25"></line>
<line x1="9" y1="25" x2="10" y2="25"></line>
<line x1="11" y1="24" x2="11" y2="25"></line>
<line x1="10" y1="25" x2="11" y2="25"></line>
<line x1="11" y1="25" x2="12" y2="25"></line>
<line x1="13" y1="24" x2="13" y2="25"></line>
<line x1="12" y1="25" x2="13" y2="25"></line>
<line x1="14" y1="24" x2="14" y2="25"></line>
<line x1="13" y1="25" x2="14" y2="25"></line>
<line x1="15" y1="24" x2="15" y2="25"></line>
<line x1="14" y1="25" x2="15" y2="25"></line>
<line x1="15" y1="25" x2="16" y2="25"></line>
<line x1="17" y1="24" x2="17" y2="25"></line>
<line x1="16" y1="25" x2="17" y2="25"></line>
<line x1="18" y1="24" x2="18" y2="25"></line>
<line x1="19" y1="24" x2="19" y2="25"></line>
<line x1="19" y1="25" x2="20" y2="25"></line>
<line x1="2" y1="25" x2="2" y2="26"></line>
<line x1="4" y1="25" x2="4" y2="26"></line>
<line x1="6" y1="25" x2="6" y2="26"></line>
<line x1="17" y1="25" x2="17" y2="26"></line>
<line x1="18" y1="25" x2="18" y2="26"></line>
<line x1="0" y1="0" x2="0" y2="26"></line>
<line x1="1" y1="0" x2="20" y2="0"></line>
<line x1="0" y1="26" x2="19" y2="26"></line>
<line x1="20" y1="0" x2="20" y2="26"></line>
</g>
</svg>
