<?xml version="1.0" encoding="UTF-8"?>
<!DOCTYPE svg
  PUBLIC '-//W3C//DTD SVG 1.1//EN'
  'http://www.w3.org/Graphics/SVG/1.1/DTD/svg11.dtd'>
<svg xmlns="http://www.w3.org/2000/svg" xmlns:xlink="http://www.w3.org/1999/xlink" width="1024" height="1024">
    <rect width="1024" height="1024" fill="#FFF"/>
    <g transform="scale(78.7692)" fill="#B22234">
        <rect width="13" height="1" y="0"/>
        <rect width="13" height="1" y="2"/>
        <rect width="13" height="1" y="4"/>
        <rect width="13" height="1" y="6"/>
        <rect width="13" height="1" y="8"/>
        <rect width="13" height="1" y="10"/>
        <rect width="13" height="1" y="12"/>
    </g>
    <path fill="#3C3B6E" d="M 296.560 0.221 C 295.719 0.536 290.267 3.892 287.896 5.555 C 278.587 12.083 273.408 19.284 270.612 29.583 C 269.395 34.067 269.194 35.869 269.020 43.833 C 268.873 50.534 268.940 50.250 267.075 52.083 C 261.948 57.125 257.184 56.458 244.982 48.989 C 235.815 43.378 231.774 42.524 226.406 45.067 C 221.538 47.373 219.697 49.661 216.197 57.750 C 210.442 71.055 207.960 82.638 204.255 113.500 C 202.049 131.868 201.051 138.925 200.496 140.083 C 200.092 140.925 195.558 146.820 189.919 153.833 C 183.310 162.054 183.231 162.184 175.919 176.917 C 166.277 196.344 162.983 201.237 156.083 206.382 C 150.765 210.348 141.042 211.494 134.667 208.906 C 128.320 206.330 125.146 203.895 122.085 199.256 C 120.058 196.185 119.089 194.940 116.708 192.350 C 114.769 190.241 114.766 190.208 116.269 188.117 C 119.150 184.107 120.348 180.086 122.161 168.333 C 123.767 157.931 124.764 153.681 126.518 149.761 C 127.728 147.058 127.615 146.500 125.859 146.500 C 122.514 146.500 119.729 148.007 116.786 151.411 C 114.159 154.450 112.805 157.107 108.087 168.487 C 104.441 177.281 100.922 182.470 97.471 184.141 C 95.425 185.131 91.695 185.593 86.917 185.449 C 77.291 185.158 74.520 183.444 64.240 171.417 C 55.906 161.667 53.143 159.118 48.599 156.988 C 45.415 155.497 45.083 156.721 47.097 162.519 C 48.941 167.831 53.523 176.598 61.415 189.917 C 65.978 197.616 68.723 202.426 69.846 204.688 L 70.870 206.750 70.769 210.250 C 70.661 213.997 70.293 219.221 69.508 228.167 C 68.625 238.227 68.591 238.893 68.587 246.000 C 68.582 256.133 69.304 259.671 72.054 262.977 C 74.411 265.810 75.772 266.140 79.704 264.828 C 85.715 262.822 88.936 259.629 95.168 249.500 C 99.116 243.083 101.337 239.963 102.731 238.875 C 103.476 238.293 104.039 238.399 105.985 239.483 C 108.834 241.070 111.025 241.831 115.390 242.753 C 117.656 243.232 117.744 243.571 116.423 246.743 C 113.401 253.997 113.745 260.830 117.886 275.750 C 124.343 299.014 124.313 300.832 117.282 312.791 C 115.000 316.674 114.844 317.109 113.839 322.417 C 112.202 331.057 111.319 334.250 106.922 347.417 C 98.772 371.825 99.171 370.946 92.575 379.000 C 84.346 389.047 83.540 390.935 87.005 392.053 C 90.415 393.155 99.707 393.020 102.908 391.822 C 104.552 391.207 105.034 390.603 106.179 387.718 C 106.985 385.687 109.080 381.458 109.492 381.033 C 110.587 379.900 110.477 381.702 109.163 386.417 C 106.348 396.510 106.283 397.002 107.601 398.160 C 109.469 399.800 110.564 400.000 117.684 400.000 C 124.177 400.000 124.970 399.908 126.738 398.951 C 128.446 398.026 128.400 398.185 128.526 392.863 C 128.586 390.326 128.721 387.878 128.826 387.423 C 129.786 383.268 134.397 376.071 149.218 355.598 C 163.343 336.085 164.024 334.648 169.913 311.918 C 171.563 305.549 171.274 306.102 174.417 303.293 C 178.929 299.259 186.310 291.575 189.431 287.661 C 197.159 277.970 201.885 269.240 213.201 243.750 C 220.196 227.994 221.333 225.989 225.788 221.560 C 230.212 217.161 231.750 216.534 236.476 217.202 C 246.385 218.603 254.976 216.791 262.743 211.662 C 266.419 209.234 268.535 207.158 278.967 195.750 C 286.343 187.683 286.558 187.491 287.854 187.838 C 288.255 187.945 290.031 188.630 291.801 189.360 C 304.648 194.661 312.294 196.036 327.500 195.778 C 337.782 195.603 351.710 193.862 353.497 192.527 C 355.279 191.197 353.934 183.670 351.244 179.917 C 350.019 178.208 344.223 172.868 341.986 171.388 C 340.357 170.310 337.712 171.007 328.012 175.071 C 320.884 178.058 319.396 178.432 317.333 177.754 C 313.665 176.549 310.386 173.918 305.283 168.083 C 298.858 160.738 296.963 159.209 292.374 157.671 C 288.554 156.392 288.065 156.699 280.830 164.915 C 274.934 171.613 271.620 174.983 270.136 175.792 C 269.472 176.153 269.292 176.167 265.135 176.167 C 257.998 176.167 258.023 176.321 264.137 170.090 C 275.853 158.147 278.714 153.718 279.421 146.425 C 279.693 143.628 282.205 143.104 295.417 143.091 L 303.083 143.083 303.868 142.667 C 304.931 142.103 306.853 140.542 310.307 137.441 C 318.314 130.252 320.431 129.256 330.917 127.748 C 339.310 126.541 342.485 125.534 345.147 123.234 C 347.063 121.578 347.268 120.574 346.146 118.333 C 343.156 112.357 336.798 108.042 328.121 106.095 C 323.399 105.036 322.511 105.595 314.872 114.432 C 310.290 119.734 309.313 120.737 308.198 121.285 L 307.250 121.750 303.167 121.748 C 297.617 121.745 296.576 121.511 289.437 118.670 C 283.532 116.319 281.953 115.935 276.981 115.644 C 269.990 115.235 269.184 115.758 260.999 126.000 C 252.770 136.297 252.770 136.297 249.326 134.253 C 241.584 129.657 234.641 127.283 223.750 125.506 C 220.072 124.906 219.575 124.769 219.243 124.263 C 218.289 122.807 218.740 99.440 219.931 88.583 C 221.850 71.097 226.025 58.799 231.164 55.502 C 234.636 53.274 237.927 53.929 248.327 58.920 C 258.200 63.657 263.177 63.872 268.613 59.794 C 269.238 59.325 271.925 56.795 274.583 54.172 C 279.676 49.147 280.379 48.579 283.951 46.599 C 288.217 44.235 291.951 40.651 293.103 37.817 C 294.481 34.427 296.655 24.852 297.749 17.355 C 298.157 14.564 297.900 14.063 296.329 14.585 C 293.869 15.402 294.044 13.559 297.405 3.230 C 297.916 1.661 298.333 0.292 298.333 0.189 C 298.333 -0.055 297.245 -0.035 296.560 0.221 M 138.893 316.792 C 139.230 317.449 139.606 319.416 139.924 322.182 C 140.361 325.980 140.438 325.673 137.592 331.508 C 133.793 339.301 132.467 342.351 128.647 352.083 L 126.750 356.917 125.750 357.917 C 125.200 358.467 124.021 359.538 123.129 360.298 C 121.212 361.931 120.414 363.000 118.754 366.158 C 117.208 369.102 115.945 371.041 115.861 370.602 C 115.802 370.300 116.634 368.548 118.956 364.082 C 119.576 362.890 120.417 361.090 120.825 360.082 L 121.566 358.250 121.680 354.750 C 121.864 349.112 122.429 347.710 130.175 333.667 C 135.031 324.865 135.692 323.458 136.968 319.232 C 137.890 316.175 138.306 315.648 138.893 316.792" transform="scale(2.56)"/>
</svg>
